ffmpeg started on 2025-04-16 at 11:34:21
Report written to "D:\Convert\FFMetrics\reports\ssim_report-3.txt"
Log level: 32
Command line:
ffmpeg -hide_banner -nostdin -r 24000/1001 -i "G:\\\xc0\xed\xe8\xec\xe5\\\xce\xed\xe3\xee\xe8\xed\xe3\xe8\\!_37_\xc7\xe8\xec\xe0_2025\\JamClub\\\xcf\xee\xe4\xed\xff\xf2\xe8\xe5 \xf3\xf0\xee\xe2\xed\xff \xe2 \xee\xe4\xe8\xed\xee\xf7\xea\xf3\\\xd2\xc2-2\\JamClub_Ore_dake_Level_Up_na_Ken_Season_2_08_1080p_HEVC.mkv" -i "G:\\\xc0\xed\xe8\xec\xe5\\\xce\xed\xe3\xee\xe8\xed\xe3\xe8\\!_37_\xc7\xe8\xec\xe0_2025\\JamClub\\\xcf\xee\xe4\xed\xff\xf2\xe8\xe5 \xf3\xf0\xee\xe2\xed\xff \xe2 \xee\xe4\xe8\xed\xee\xf7\xea\xf3\\\xd2\xc2-2\\JamClub_Ore_dake_Level_Up_na_Ken_Season_2_08_1080p.mp4" -lavfi "[0:v]settb=AVTB,setpts=PTS-STARTPTS[main];[1:v]settb=AVTB,setpts=PTS-STARTPTS[ref];[main][ref]ssim=eof_action=endall:stats_file='D\\:/Convert/FFMetrics/logs/ssim_logfile-3.txt'" -f null -
Input #0, matroska,webm, from 'G:\Аниме\Онгоинги\!_37_Зима_2025\JamClub\Поднятие уровня в одиночку\ТВ-2\JamClub_Ore_dake_Level_Up_na_Ken_Season_2_08_1080p_HEVC.mkv':
  Metadata:
    COMPATIBLE_BRANDS: isomiso2avc1mp41
    MAJOR_BRAND     : isom
    MINOR_VERSION   : 512
    ENCODER         : Lavf61.7.100
  Duration: 00:24:02.37, start: -0.001000, bitrate: 1695 kb/s
  Stream #0:0: Video: hevc (Main 10), yuv420p10le(tv, bt709, progressive), 1920x1080 [SAR 1:1 DAR 16:9], 23.98 fps, 23.98 tbr, 1k tbn (default)
      Metadata:
        HANDLER_NAME    : VideoHandler
        VENDOR_ID       : [0][0][0][0]
        ENCODER         : Lavc61.19.100 libx265
        BPS             : 1497436
        DURATION        : 00:24:02.232708333
        NUMBER_OF_FRAMES: 34579
        NUMBER_OF_BYTES : 269956420
        _STATISTICS_WRITING_APP: mkvpropedit v66.0.0 ('Josie') 64-bit
        _STATISTICS_WRITING_DATE_UTC: 2025-04-12 12:42:13
        _STATISTICS_TAGS: BPS DURATION NUMBER_OF_FRAMES NUMBER_OF_BYTES
  Stream #0:1(eng): Audio: aac (LC), 48000 Hz, stereo, fltp (default)
      Metadata:
        HANDLER_NAME    : SoundHandler
        VENDOR_ID       : [0][0][0][0]
        ENCODER         : Lavc61.19.100 aac
        BPS             : 194436
        DURATION        : 00:24:02.328000000
        NUMBER_OF_FRAMES: 67610
        NUMBER_OF_BYTES : 35055162
        _STATISTICS_WRITING_APP: mkvpropedit v66.0.0 ('Josie') 64-bit
        _STATISTICS_WRITING_DATE_UTC: 2025-04-12 12:42:13
        _STATISTICS_TAGS: BPS DURATION NUMBER_OF_FRAMES NUMBER_OF_BYTES
Input #1, mov,mp4,m4a,3gp,3g2,mj2, from 'G:\Аниме\Онгоинги\!_37_Зима_2025\JamClub\Поднятие уровня в одиночку\ТВ-2\JamClub_Ore_dake_Level_Up_na_Ken_Season_2_08_1080p.mp4':
  Metadata:
    major_brand     : isom
    minor_version   : 512
    compatible_brands: isomiso2avc1mp41
    encoder         : Lavf60.16.100
  Duration: 00:24:02.35, start: 0.000000, bitrate: 5293 kb/s
  Stream #1:0[0x1](und): Video: h264 (High) (avc1 / 0x31637661), yuv420p(progressive), 1920x1080 [SAR 1:1 DAR 16:9], 5096 kb/s, 23.98 fps, 23.98 tbr, 90k tbn (default)
      Metadata:
        handler_name    : VideoHandler
        vendor_id       : [0][0][0][0]
  Stream #1:1[0x2](eng): Audio: aac (LC) (mp4a / 0x6134706D), 48000 Hz, stereo, fltp, 191 kb/s (default)
      Metadata:
        handler_name    : SoundHandler
        vendor_id       : [0][0][0][0]
Stream mapping:
  Stream #0:0 (hevc) -> settb:default
  Stream #1:0 (h264) -> settb:default
  ssim:default -> Stream #0:0 (wrapped_avframe)
  Stream #0:1 -> #0:1 (aac (native) -> pcm_s16le (native))
Output #0, null, to 'pipe:':
  Metadata:
    COMPATIBLE_BRANDS: isomiso2avc1mp41
    MAJOR_BRAND     : isom
    MINOR_VERSION   : 512
    encoder         : Lavf61.7.100
  Stream #0:0: Video: wrapped_avframe, yuv420p10le(tv, bt709, progressive), 1920x1080 [SAR 1:1 DAR 16:9], q=2-31, 200 kb/s, 1000k tbn
      Metadata:
        encoder         : Lavc61.19.100 wrapped_avframe
  Stream #0:1(eng): Audio: pcm_s16le, 48000 Hz, stereo, s16, 1536 kb/s (default)
      Metadata:
        HANDLER_NAME    : SoundHandler
        VENDOR_ID       : [0][0][0][0]
        _STATISTICS_TAGS: BPS DURATION NUMBER_OF_FRAMES NUMBER_OF_BYTES
        BPS             : 194436
        DURATION        : 00:24:02.328000000
        NUMBER_OF_FRAMES: 67610
        NUMBER_OF_BYTES : 35055162
        _STATISTICS_WRITING_APP: mkvpropedit v66.0.0 ('Josie') 64-bit
        _STATISTICS_WRITING_DATE_UTC: 2025-04-12 12:42:13
        encoder         : Lavc61.19.100 pcm_s16le
frame=  113 fps=0.0 q=-0.0 size=N/A time=00:00:04.67 bitrate=N/A speed=9.11x    frame=  278 fps=272 q=-0.0 size=N/A time=00:00:11.55 bitrate=N/A speed=11.3x    frame=  479 fps=312 q=-0.0 size=N/A time=00:00:19.93 bitrate=N/A speed=  13x    frame=  697 fps=338 q=-0.0 size=N/A time=00:00:29.02 bitrate=N/A speed=14.1x    frame=  939 fps=366 q=-0.0 size=N/A time=00:00:39.12 bitrate=N/A speed=15.2x    frame= 1167 fps=377 q=-0.0 size=N/A time=00:00:48.63 bitrate=N/A speed=15.7x    frame= 1361 fps=376 q=-0.0 size=N/A time=00:00:56.72 bitrate=N/A speed=15.7x    frame= 1557 fps=377 q=-0.0 size=N/A time=00:01:04.89 bitrate=N/A speed=15.7x    frame= 1766 fps=380 q=-0.0 size=N/A time=00:01:13.61 bitrate=N/A speed=15.9x    frame= 1973 fps=382 q=-0.0 size=N/A time=00:01:22.24 bitrate=N/A speed=15.9x    frame= 2160 fps=380 q=-0.0 size=N/A time=00:01:30.04 bitrate=N/A speed=15.8x    frame= 2319 fps=374 q=-0.0 size=N/A time=00:01:36.67 bitrate=N/A speed=15.6x    frame= 2484 fps=370 q=-0.0 size=N/A time=00:01:43.56 bitrate=N/A speed=15.4x    frame= 2705 fps=374 q=-0.0 size=N/A time=00:01:52.77 bitrate=N/A speed=15.6x    frame= 2857 fps=369 q=-0.0 size=N/A time=00:01:59.11 bitrate=N/A speed=15.4x    frame= 3033 fps=367 q=-0.0 size=N/A time=00:02:06.45 bitrate=N/A speed=15.3x    frame= 3179 fps=362 q=-0.0 size=N/A time=00:02:12.54 bitrate=N/A speed=15.1x    frame= 3358 fps=362 q=-0.0 size=N/A time=00:02:20.01 bitrate=N/A speed=15.1x    frame= 3571 fps=364 q=-0.0 size=N/A time=00:02:28.89 bitrate=N/A speed=15.2x    frame= 3794 fps=367 q=-0.0 size=N/A time=00:02:38.19 bitrate=N/A speed=15.3x    frame= 4011 fps=370 q=-0.0 size=N/A time=00:02:47.25 bitrate=N/A speed=15.4x    frame= 4222 fps=372 q=-0.0 size=N/A time=00:02:56.05 bitrate=N/A speed=15.5x    frame= 4434 fps=373 q=-0.0 size=N/A time=00:03:04.89 bitrate=N/A speed=15.6x    frame= 4652 fps=376 q=-0.0 size=N/A time=00:03:13.98 bitrate=N/A speed=15.7x    frame= 4863 fps=377 q=-0.0 size=N/A time=00:03:22.78 bitrate=N/A speed=15.7x    frame= 5065 fps=378 q=-0.0 size=N/A time=00:03:31.21 bitrate=N/A speed=15.8x    frame= 5291 fps=380 q=-0.0 size=N/A time=00:03:40.63 bitrate=N/A speed=15.8x    frame= 5532 fps=383 q=-0.0 size=N/A time=00:03:50.68 bitrate=N/A speed=  16x    frame= 5764 fps=385 q=-0.0 size=N/A time=00:04:00.36 bitrate=N/A speed=16.1x    frame= 5961 fps=385 q=-0.0 size=N/A time=00:04:08.58 bitrate=N/A speed=16.1x    frame= 6191 fps=387 q=-0.0 size=N/A time=00:04:18.17 bitrate=N/A speed=16.1x    frame= 6425 fps=389 q=-0.0 size=N/A time=00:04:27.93 bitrate=N/A speed=16.2x    frame= 6642 fps=390 q=-0.0 size=N/A time=00:04:36.98 bitrate=N/A speed=16.3x    frame= 6851 fps=390 q=-0.0 size=N/A time=00:04:45.70 bitrate=N/A speed=16.3x    frame= 7081 fps=392 q=-0.0 size=N/A time=00:04:55.29 bitrate=N/A speed=16.3x    frame= 7310 fps=393 q=-0.0 size=N/A time=00:05:04.84 bitrate=N/A speed=16.4x    frame= 7517 fps=394 q=-0.0 size=N/A time=00:05:13.47 bitrate=N/A speed=16.4x    frame= 7737 fps=394 q=-0.0 size=N/A time=00:05:22.65 bitrate=N/A speed=16.4x    frame= 7933 fps=394 q=-0.0 size=N/A time=00:05:30.83 bitrate=N/A speed=16.4x    frame= 8132 fps=394 q=-0.0 size=N/A time=00:05:39.13 bitrate=N/A speed=16.4x    frame= 8359 fps=395 q=-0.0 size=N/A time=00:05:48.59 bitrate=N/A speed=16.5x    frame= 8574 fps=396 q=-0.0 size=N/A time=00:05:57.56 bitrate=N/A speed=16.5x    frame= 8817 fps=397 q=-0.0 size=N/A time=00:06:07.70 bitrate=N/A speed=16.6x    frame= 9057 fps=399 q=-0.0 size=N/A time=00:06:17.71 bitrate=N/A speed=16.6x    frame= 9327 fps=401 q=-0.0 size=N/A time=00:06:28.97 bitrate=N/A speed=16.7x    frame= 9565 fps=403 q=-0.0 size=N/A time=00:06:38.89 bitrate=N/A speed=16.8x    frame= 9841 fps=406 q=-0.0 size=N/A time=00:06:50.41 bitrate=N/A speed=16.9x    frame=10115 fps=408 q=-0.0 size=N/A time=00:07:01.83 bitrate=N/A speed=  17x    frame=10328 fps=408 q=-0.0 size=N/A time=00:07:10.72 bitrate=N/A speed=  17x    frame=10542 fps=409 q=-0.0 size=N/A time=00:07:19.64 bitrate=N/A speed=  17x    frame=10741 fps=408 q=-0.0 size=N/A time=00:07:27.94 bitrate=N/A speed=  17x    frame=10976 fps=409 q=-0.0 size=N/A time=00:07:37.74 bitrate=N/A speed=17.1x    frame=11227 fps=410 q=-0.0 size=N/A time=00:07:48.21 bitrate=N/A speed=17.1x    frame=11472 fps=412 q=-0.0 size=N/A time=00:07:58.43 bitrate=N/A speed=17.2x    frame=11735 fps=414 q=-0.0 size=N/A time=00:08:09.40 bitrate=N/A speed=17.2x    frame=11968 fps=414 q=-0.0 size=N/A time=00:08:19.12 bitrate=N/A speed=17.3x    frame=12220 fps=415 q=-0.0 size=N/A time=00:08:29.63 bitrate=N/A speed=17.3x    frame=12480 fps=417 q=-0.0 size=N/A time=00:08:40.47 bitrate=N/A speed=17.4x    frame=12747 fps=419 q=-0.0 size=N/A time=00:08:51.61 bitrate=N/A speed=17.5x    frame=13004 fps=420 q=-0.0 size=N/A time=00:09:02.33 bitrate=N/A speed=17.5x    frame=13247 fps=421 q=-0.0 size=N/A time=00:09:12.46 bitrate=N/A speed=17.6x    frame=13486 fps=421 q=-0.0 size=N/A time=00:09:22.43 bitrate=N/A speed=17.6x    frame=13706 fps=422 q=-0.0 size=N/A time=00:09:31.61 bitrate=N/A speed=17.6x    frame=13974 fps=423 q=-0.0 size=N/A time=00:09:42.83 bitrate=N/A speed=17.6x    frame=14215 fps=424 q=-0.0 size=N/A time=00:09:52.88 bitrate=N/A speed=17.7x    frame=14478 fps=425 q=-0.0 size=N/A time=00:10:03.81 bitrate=N/A speed=17.7x    frame=14738 fps=426 q=-0.0 size=N/A time=00:10:14.65 bitrate=N/A speed=17.8x    frame=14975 fps=427 q=-0.0 size=N/A time=00:10:24.54 bitrate=N/A speed=17.8x    frame=15220 fps=427 q=-0.0 size=N/A time=00:10:34.75 bitrate=N/A speed=17.8x    frame=15480 fps=429 q=-0.0 size=N/A time=00:10:45.60 bitrate=N/A speed=17.9x    frame=15733 fps=429 q=-0.0 size=N/A time=00:10:56.15 bitrate=N/A speed=17.9x    frame=15990 fps=430 q=-0.0 size=N/A time=00:11:06.87 bitrate=N/A speed=17.9x    frame=16205 fps=430 q=-0.0 size=N/A time=00:11:15.84 bitrate=N/A speed=17.9x    frame=16416 fps=430 q=-0.0 size=N/A time=00:11:24.64 bitrate=N/A speed=17.9x    frame=16643 fps=430 q=-0.0 size=N/A time=00:11:34.11 bitrate=N/A speed=17.9x    frame=16875 fps=430 q=-0.0 size=N/A time=00:11:43.78 bitrate=N/A speed=  18x    frame=17135 fps=431 q=-0.0 size=N/A time=00:11:54.63 bitrate=N/A speed=  18x    frame=17411 fps=433 q=-0.0 size=N/A time=00:12:06.14 bitrate=N/A speed=  18x    frame=17681 fps=434 q=-0.0 size=N/A time=00:12:17.40 bitrate=N/A speed=18.1x    frame=17959 fps=435 q=-0.0 size=N/A time=00:12:28.99 bitrate=N/A speed=18.1x    frame=18190 fps=435 q=-0.0 size=N/A time=00:12:38.63 bitrate=N/A speed=18.2x    frame=18421 fps=435 q=-0.0 size=N/A time=00:12:48.26 bitrate=N/A speed=18.2x    frame=18627 fps=435 q=-0.0 size=N/A time=00:12:56.85 bitrate=N/A speed=18.1x    frame=18834 fps=435 q=-0.0 size=N/A time=00:13:05.49 bitrate=N/A speed=18.1x    frame=19078 fps=435 q=-0.0 size=N/A time=00:13:15.66 bitrate=N/A speed=18.1x    frame=19303 fps=435 q=-0.0 size=N/A time=00:13:25.05 bitrate=N/A speed=18.1x    frame=19502 fps=434 q=-0.0 size=N/A time=00:13:33.35 bitrate=N/A speed=18.1x    frame=19697 fps=434 q=-0.0 size=N/A time=00:13:41.48 bitrate=N/A speed=18.1x    frame=19932 fps=434 q=-0.0 size=N/A time=00:13:51.28 bitrate=N/A speed=18.1x    frame=20125 fps=433 q=-0.0 size=N/A time=00:13:59.33 bitrate=N/A speed=18.1x    frame=20323 fps=433 q=-0.0 size=N/A time=00:14:07.59 bitrate=N/A speed=18.1x    frame=20499 fps=432 q=-0.0 size=N/A time=00:14:14.93 bitrate=N/A speed=  18x    frame=20695 fps=431 q=-0.0 size=N/A time=00:14:23.11 bitrate=N/A speed=  18x    frame=20933 fps=432 q=-0.0 size=N/A time=00:14:33.03 bitrate=N/A speed=  18x    frame=21149 fps=431 q=-0.0 size=N/A time=00:14:42.04 bitrate=N/A speed=  18x    frame=21360 fps=431 q=-0.0 size=N/A time=00:14:50.84 bitrate=N/A speed=  18x    frame=21558 fps=431 q=-0.0 size=N/A time=00:14:59.10 bitrate=N/A speed=  18x    frame=21770 fps=430 q=-0.0 size=N/A time=00:15:07.94 bitrate=N/A speed=17.9x    frame=21995 fps=430 q=-0.0 size=N/A time=00:15:17.33 bitrate=N/A speed=  18x    frame=22179 fps=430 q=-0.0 size=N/A time=00:15:25.00 bitrate=N/A speed=17.9x    frame=22370 fps=429 q=-0.0 size=N/A time=00:15:32.97 bitrate=N/A speed=17.9x    frame=22580 fps=429 q=-0.0 size=N/A time=00:15:41.73 bitrate=N/A speed=17.9x    frame=22775 fps=428 q=-0.0 size=N/A time=00:15:49.86 bitrate=N/A speed=17.9x    frame=22979 fps=428 q=-0.0 size=N/A time=00:15:58.37 bitrate=N/A speed=17.9x    frame=23180 fps=428 q=-0.0 size=N/A time=00:16:06.75 bitrate=N/A speed=17.8x    frame=23399 fps=428 q=-0.0 size=N/A time=00:16:15.89 bitrate=N/A speed=17.8x    frame=23652 fps=428 q=-0.0 size=N/A time=00:16:26.44 bitrate=N/A speed=17.9x    frame=23886 fps=429 q=-0.0 size=N/A time=00:16:36.20 bitrate=N/A speed=17.9x    frame=24127 fps=429 q=-0.0 size=N/A time=00:16:46.25 bitrate=N/A speed=17.9x    frame=24363 fps=429 q=-0.0 size=N/A time=00:16:56.09 bitrate=N/A speed=17.9x    frame=24607 fps=430 q=-0.0 size=N/A time=00:17:06.27 bitrate=N/A speed=17.9x    frame=24865 fps=430 q=-0.0 size=N/A time=00:17:17.03 bitrate=N/A speed=17.9x    frame=25093 fps=430 q=-0.0 size=N/A time=00:17:26.54 bitrate=N/A speed=17.9x    frame=25324 fps=430 q=-0.0 size=N/A time=00:17:36.22 bitrate=N/A speed=  18x    frame=25570 fps=431 q=-0.0 size=N/A time=00:17:46.44 bitrate=N/A speed=  18x    frame=25736 fps=430 q=-0.0 size=N/A time=00:17:53.36 bitrate=N/A speed=17.9x    frame=25957 fps=430 q=-0.0 size=N/A time=00:18:02.58 bitrate=N/A speed=17.9x    frame=26183 fps=430 q=-0.0 size=N/A time=00:18:12.00 bitrate=N/A speed=17.9x    frame=26439 fps=430 q=-0.0 size=N/A time=00:18:22.68 bitrate=N/A speed=  18x    frame=26679 fps=431 q=-0.0 size=N/A time=00:18:32.69 bitrate=N/A speed=  18x    frame=26901 fps=431 q=-0.0 size=N/A time=00:18:41.95 bitrate=N/A speed=  18x    frame=27146 fps=431 q=-0.0 size=N/A time=00:18:52.17 bitrate=N/A speed=  18x    frame=27365 fps=431 q=-0.0 size=N/A time=00:19:01.30 bitrate=N/A speed=  18x    frame=27584 fps=431 q=-0.0 size=N/A time=00:19:10.44 bitrate=N/A speed=  18x    frame=27786 fps=431 q=-0.0 size=N/A time=00:19:18.86 bitrate=N/A speed=  18x    frame=28020 fps=431 q=-0.0 size=N/A time=00:19:28.62 bitrate=N/A speed=  18x    frame=28245 fps=431 q=-0.0 size=N/A time=00:19:38.01 bitrate=N/A speed=  18x    frame=28446 fps=431 q=-0.0 size=N/A time=00:19:46.39 bitrate=N/A speed=  18x    frame=28662 fps=431 q=-0.0 size=N/A time=00:19:55.40 bitrate=N/A speed=  18x    frame=28877 fps=430 q=-0.0 size=N/A time=00:20:04.36 bitrate=N/A speed=  18x    frame=29092 fps=430 q=-0.0 size=N/A time=00:20:13.33 bitrate=N/A speed=17.9x    frame=29283 fps=430 q=-0.0 size=N/A time=00:20:21.30 bitrate=N/A speed=17.9x    frame=29464 fps=429 q=-0.0 size=N/A time=00:20:28.85 bitrate=N/A speed=17.9x    frame=29645 fps=429 q=-0.0 size=N/A time=00:20:36.40 bitrate=N/A speed=17.9x    frame=29805 fps=428 q=-0.0 size=N/A time=00:20:43.07 bitrate=N/A speed=17.8x    frame=29977 fps=427 q=-0.0 size=N/A time=00:20:50.24 bitrate=N/A speed=17.8x    frame=30153 fps=427 q=-0.0 size=N/A time=00:20:57.58 bitrate=N/A speed=17.8x    frame=30337 fps=426 q=-0.0 size=N/A time=00:21:05.26 bitrate=N/A speed=17.8x    frame=30500 fps=425 q=-0.0 size=N/A time=00:21:12.06 bitrate=N/A speed=17.7x    frame=30671 fps=425 q=-0.0 size=N/A time=00:21:19.19 bitrate=N/A speed=17.7x    frame=30843 fps=424 q=-0.0 size=N/A time=00:21:26.36 bitrate=N/A speed=17.7x    frame=31010 fps=423 q=-0.0 size=N/A time=00:21:33.33 bitrate=N/A speed=17.7x    frame=31218 fps=423 q=-0.0 size=N/A time=00:21:42.00 bitrate=N/A speed=17.6x    frame=31421 fps=423 q=-0.0 size=N/A time=00:21:50.47 bitrate=N/A speed=17.6x    frame=31617 fps=423 q=-0.0 size=N/A time=00:21:58.65 bitrate=N/A speed=17.6x    frame=31821 fps=422 q=-0.0 size=N/A time=00:22:07.15 bitrate=N/A speed=17.6x    frame=32067 fps=423 q=-0.0 size=N/A time=00:22:17.41 bitrate=N/A speed=17.6x    frame=32301 fps=423 q=-0.0 size=N/A time=00:22:27.17 bitrate=N/A speed=17.6x    frame=32508 fps=423 q=-0.0 size=N/A time=00:22:35.81 bitrate=N/A speed=17.6x    frame=32726 fps=423 q=-0.0 size=N/A time=00:22:44.90 bitrate=N/A speed=17.6x    frame=32952 fps=423 q=-0.0 size=N/A time=00:22:54.33 bitrate=N/A speed=17.6x    frame=33172 fps=423 q=-0.0 size=N/A time=00:23:03.50 bitrate=N/A speed=17.6x    frame=33391 fps=423 q=-0.0 size=N/A time=00:23:12.64 bitrate=N/A speed=17.6x    frame=33569 fps=422 q=-0.0 size=N/A time=00:23:20.06 bitrate=N/A speed=17.6x    frame=33739 fps=422 q=-0.0 size=N/A time=00:23:27.15 bitrate=N/A speed=17.6x    frame=33937 fps=421 q=-0.0 size=N/A time=00:23:35.41 bitrate=N/A speed=17.6x    frame=34135 fps=421 q=-0.0 size=N/A time=00:23:43.67 bitrate=N/A speed=17.6x    frame=34347 fps=421 q=-0.0 size=N/A time=00:23:52.51 bitrate=N/A speed=17.6x    frame=34536 fps=421 q=-0.0 size=N/A time=00:24:00.39 bitrate=N/A speed=17.5x    [Parsed_ssim_4 @ 000001a4f5da9300] SSIM Y:0.954631 (13.432405) U:0.981104 (17.236258) V:0.979325 (16.845522) All:0.963159 (14.336658)
[out#0/null @ 000001a4e9ccb7c0] video:14858KiB audio:270440KiB subtitle:0KiB other streams:0KiB global headers:0KiB muxing overhead: unknown
frame=34579 fps=421 q=-0.0 Lsize=N/A time=00:24:02.19 bitrate=N/A speed=17.5x    
